<svg width="40" height="40" viewBox="0 0 40 40" fill="none" xmlns="http://www.w3.org/2000/svg">
<rect width="40" height="40" rx="8" fill="#005FB8"/>
<path d="M14 30C13.45 30 12.9792 29.8042 12.5875 29.4125C12.1958 29.0208 12 28.55 12 28V12C12 11.45 12.1958 10.9792 12.5875 10.5875C12.9792 10.1958 13.45 10 14 10H26C26.55 10 27.0208 10.1958 27.4125 10.5875C27.8042 10.9792 28 11.45 28 12V28C28 28.55 27.8042 29.0208 27.4125 29.4125C27.0208 29.8042 26.55 30 26 30H14ZM20 27C21.3833 27 22.5625 26.5125 23.5375 25.5375C24.5125 24.5625 25 23.3833 25 22C25 20.6167 24.5125 19.4375 23.5375 18.4625C22.5625 17.4875 21.3833 17 20 17C18.6167 17 17.4375 17.4875 16.4625 18.4625C15.4875 19.4375 15 20.6167 15 22C15 23.3833 15.4875 24.5625 16.4625 25.5375C17.4375 26.5125 18.6167 27 20 27ZM20 25.3C19.5667 25.3 19.1458 25.2208 18.7375 25.0625C18.3292 24.9042 17.9667 24.6667 17.65 24.35L22.35 19.65C22.6667 19.9667 22.9042 20.3292 23.0625 20.7375C23.2208 21.1458 23.3 21.5667 23.3 22C23.3 22.9167 22.9792 23.6958 22.3375 24.3375C21.6958 24.9792 20.9167 25.3 20 25.3ZM16 15C16.2833 15 16.5208 14.9042 16.7125 14.7125C16.9042 14.5208 17 14.2833 17 14C17 13.7167 16.9042 13.4792 16.7125 13.2875C16.5208 13.0958 16.2833 13 16 13C15.7167 13 15.4792 13.0958 15.2875 13.2875C15.0958 13.4792 15 13.7167 15 14C15 14.2833 15.0958 14.5208 15.2875 14.7125C15.4792 14.9042 15.7167 15 16 15ZM19 15C19.2833 15 19.5208 14.9042 19.7125 14.7125C19.9042 14.5208 20 14.2833 20 14C20 13.7167 19.9042 13.4792 19.7125 13.2875C19.5208 13.0958 19.2833 13 19 13C18.7167 13 18.4792 13.0958 18.2875 13.2875C18.0958 13.4792 18 13.7167 18 14C18 14.2833 18.0958 14.5208 18.2875 14.7125C18.4792 14.9042 18.7167 15 19 15Z" fill="white"/>
</svg>
