<svg width="25" height="18" viewBox="0 0 25 18" fill="none" xmlns="http://www.w3.org/2000/svg">
<path d="M0 17.5V10C0 9.4375 0.114583 8.92708 0.34375 8.46875C0.572917 8.01042 0.875 7.60417 1.25 7.25V3.75C1.25 2.70833 1.61458 1.82292 2.34375 1.09375C3.07292 0.364583 3.95833 0 5 0H10C10.4792 0 10.9271 0.0885417 11.3438 0.265625C11.7604 0.442708 12.1458 0.6875 12.5 1C12.8542 0.6875 13.2396 0.442708 13.6562 0.265625C14.0729 0.0885417 14.5208 0 15 0H20C21.0417 0 21.9271 0.364583 22.6562 1.09375C23.3854 1.82292 23.75 2.70833 23.75 3.75V7.25C24.125 7.60417 24.4271 8.01042 24.6562 8.46875C24.8854 8.92708 25 9.4375 25 10V17.5H22.5V15H2.5V17.5H0ZM13.75 6.25H21.25V3.75C21.25 3.39583 21.1302 3.09896 20.8906 2.85938C20.651 2.61979 20.3542 2.5 20 2.5H15C14.6458 2.5 14.349 2.61979 14.1094 2.85938C13.8698 3.09896 13.75 3.39583 13.75 3.75V6.25ZM3.75 6.25H11.25V3.75C11.25 3.39583 11.1302 3.09896 10.8906 2.85938C10.651 2.61979 10.3542 2.5 10 2.5H5C4.64583 2.5 4.34896 2.61979 4.10938 2.85938C3.86979 3.09896 3.75 3.39583 3.75 3.75V6.25ZM2.5 12.5H22.5V10C22.5 9.64583 22.3802 9.34896 22.1406 9.10938C21.901 8.86979 21.6042 8.75 21.25 8.75H3.75C3.39583 8.75 3.09896 8.86979 2.85938 9.10938C2.61979 9.34896 2.5 9.64583 2.5 10V12.5ZM22.5 12.5H2.5C2.5 12.5 2.61979 12.5 2.85938 12.5C3.09896 12.5 3.39583 12.5 3.75 12.5H21.25C21.6042 12.5 21.901 12.5 22.1406 12.5C22.3802 12.5 22.5 12.5 22.5 12.5Z" fill="#00488D"/>
</svg>
