<svg width="23" height="25" viewBox="0 0 23 25" fill="none" xmlns="http://www.w3.org/2000/svg">
<path d="M5 25V17.5H3C2.16667 17.5 1.45833 17.2083 0.875 16.625C0.291667 16.0417 0 15.3333 0 14.5C0 13.8958 0.166667 13.3385 0.5 12.8281C0.833333 12.3177 1.27083 11.9375 1.8125 11.6875L10 8.0625V7.25C9.25 6.97917 8.64583 6.52604 8.1875 5.89062C7.72917 5.25521 7.5 4.54167 7.5 3.75C7.5 2.70833 7.86458 1.82292 8.59375 1.09375C9.32292 0.364583 10.2083 0 11.25 0C12.2917 0 13.1771 0.364583 13.9062 1.09375C14.6354 1.82292 15 2.70833 15 3.75H12.5C12.5 3.39583 12.3802 3.09896 12.1406 2.85938C11.901 2.61979 11.6042 2.5 11.25 2.5C10.8958 2.5 10.599 2.61979 10.3594 2.85938C10.1198 3.09896 10 3.39583 10 3.75C10 4.10417 10.1198 4.40104 10.3594 4.64062C10.599 4.88021 10.8958 5 11.25 5C11.6042 5 11.901 5.11979 12.1406 5.35938C12.3802 5.59896 12.5 5.89583 12.5 6.25V8.0625L20.6875 11.6875C21.2292 11.9375 21.6667 12.3177 22 12.8281C22.3333 13.3385 22.5 13.8958 22.5 14.5C22.5 15.3333 22.2083 16.0417 21.625 16.625C21.0417 17.2083 20.3333 17.5 19.5 17.5H17.5V25H5ZM3 15H5V13.75H17.5V15H19.5C19.6458 15 19.7656 14.9479 19.8594 14.8438C19.9531 14.7396 20 14.6042 20 14.4375C20 14.3333 19.974 14.2448 19.9219 14.1719C19.8698 14.099 19.7917 14.0417 19.6875 14L11.25 10.25L2.8125 14C2.70833 14.0417 2.63021 14.099 2.57812 14.1719C2.52604 14.2448 2.5 14.3333 2.5 14.4375C2.5 14.6042 2.54688 14.7396 2.64062 14.8438C2.73438 14.9479 2.85417 15 3 15ZM7.5 22.5H15V16.25H7.5V22.5ZM7.5 16.25H15H7.5Z" fill="#00488D"/>
</svg>
