<svg width="14" height="14" viewBox="0 0 14 14" fill="none" xmlns="http://www.w3.org/2000/svg">
<path d="M1.5 12H8.25V8.25H12V1.5H1.5V12ZM1.5 13.5C1.0875 13.5 0.734375 13.3531 0.440625 13.0594C0.146875 12.7656 0 12.4125 0 12V1.5C0 1.0875 0.146875 0.734375 0.440625 0.440625C0.734375 0.146875 1.0875 0 1.5 0H12C12.4125 0 12.7656 0.146875 13.0594 0.440625C13.3531 0.734375 13.5 1.0875 13.5 1.5V9L9 13.5H1.5ZM3 8.25V6.75H6.75V8.25H3ZM3 5.25V3.75H10.5V5.25H3ZM1.5 12V8.25V1.5V12Z" fill="#7B3200"/>
</svg>
