<svg width="27" height="28" viewBox="0 0 27 28" fill="none" xmlns="http://www.w3.org/2000/svg">
<g filter="url(#filter0_d_8_1654)">
<path d="M7.5 9L13 0L18.5 9H7.5ZM18.5 20C17.25 20 16.1875 19.5625 15.3125 18.6875C14.4375 17.8125 14 16.75 14 15.5C14 14.25 14.4375 13.1875 15.3125 12.3125C16.1875 11.4375 17.25 11 18.5 11C19.75 11 20.8125 11.4375 21.6875 12.3125C22.5625 13.1875 23 14.25 23 15.5C23 16.75 22.5625 17.8125 21.6875 18.6875C20.8125 19.5625 19.75 20 18.5 20ZM4 19.5V11.5H12V19.5H4ZM18.5 18C19.2 18 19.7917 17.7583 20.275 17.275C20.7583 16.7917 21 16.2 21 15.5C21 14.8 20.7583 14.2083 20.275 13.725C19.7917 13.2417 19.2 13 18.5 13C17.8 13 17.2083 13.2417 16.725 13.725C16.2417 14.2083 16 14.8 16 15.5C16 16.2 16.2417 16.7917 16.725 17.275C17.2083 17.7583 17.8 18 18.5 18ZM6 17.5H10V13.5H6V17.5ZM11.05 7H14.95L13 3.85L11.05 7Z" fill="#005FB8"/>
</g>
<defs>
<filter id="filter0_d_8_1654" x="0" y="0" width="27" height="28" filterUnits="userSpaceOnUse" color-interpolation-filters="sRGB">
<feFlood flood-opacity="0" result="BackgroundImageFix"/>
<feColorMatrix in="SourceAlpha" type="matrix" values="0 0 0 0 0 0 0 0 0 0 0 0 0 0 0 0 0 0 127 0" result="hardAlpha"/>
<feOffset dy="4"/>
<feGaussianBlur stdDeviation="2"/>
<feComposite in2="hardAlpha" operator="out"/>
<feColorMatrix type="matrix" values="0 0 0 0 0 0 0 0 0 0 0 0 0 0 0 0 0 0 0.25 0"/>
<feBlend mode="normal" in2="BackgroundImageFix" result="effect1_dropShadow_8_1654"/>
<feBlend mode="normal" in="SourceGraphic" in2="effect1_dropShadow_8_1654" result="shape"/>
</filter>
</defs>
</svg>
