<svg width="25" height="15" viewBox="0 0 25 15" fill="none" xmlns="http://www.w3.org/2000/svg">
<path d="M0 15V11.25C0 9.875 0.489583 8.69792 1.46875 7.71875C2.44792 6.73958 3.625 6.25 5 6.25H16.25V5C16.25 4.64583 16.1302 4.34896 15.8906 4.10938C15.651 3.86979 15.3542 3.75 15 3.75H10C9.64583 3.75 9.34896 3.86979 9.10938 4.10938C8.86979 4.34896 8.75 4.64583 8.75 5H6.25C6.25 3.95833 6.61458 3.07292 7.34375 2.34375C8.07292 1.61458 8.95833 1.25 10 1.25H15C16.0417 1.25 16.9271 1.61458 17.6562 2.34375C18.3854 3.07292 18.75 3.95833 18.75 5V10C19.1042 10 19.401 9.88021 19.6406 9.64062C19.8802 9.40104 20 9.10417 20 8.75V3.75C20 2.70833 20.3646 1.82292 21.0938 1.09375C21.8229 0.364583 22.7083 0 23.75 0H25V2.5H23.75C23.3958 2.5 23.099 2.61979 22.8594 2.85938C22.6198 3.09896 22.5 3.39583 22.5 3.75V8.75C22.5 9.79167 22.1354 10.6771 21.4062 11.4062C20.6771 12.1354 19.7917 12.5 18.75 12.5V15H0ZM2.5 12.5H16.25V8.75H5C4.3125 8.75 3.72396 8.99479 3.23438 9.48438C2.74479 9.97396 2.5 10.5625 2.5 11.25V12.5ZM16.25 12.5V11.25C16.25 10.5625 16.25 9.97396 16.25 9.48438C16.25 8.99479 16.25 8.75 16.25 8.75V12.5Z" fill="#00488D"/>
</svg>
